<svg width="14" height="11" viewBox="0 0 14 11" fill="none" xmlns="http://www.w3.org/2000/svg">
<path d="M11.8579 8.99911H2.10789C1.97105 8.99911 1.85473 9.13873 1.85473 9.32197V10.1771C1.85473 10.3517 1.96421 10.5 2.10789 10.5H11.8579C11.9947 10.5 12.111 10.3604 12.111 10.1771V9.31325C12.111 9.13872 12.0016 8.99911 11.8579 8.99911Z" fill="#1569CE"/>
<path d="M13.5 3.21382C13.5 2.76879 13.2195 2.41975 12.8774 2.41975C12.5353 2.41975 12.2547 2.77752 12.2547 3.21382C12.2547 3.31854 12.2684 3.41452 12.2958 3.50179L10.8247 5.1772C10.4689 5.58733 9.92158 5.52625 9.61368 5.05503L7.52 1.80019H7.47895C7.56789 1.66057 7.61579 1.48605 7.61579 1.29408C7.61579 0.849045 7.33526 0.5 6.99316 0.5C6.64421 0.5 6.37053 0.857771 6.37053 1.29408C6.37053 1.48605 6.42526 1.66057 6.50737 1.80019H6.49368L4.34526 4.98523C4.05105 5.42153 3.53789 5.48261 3.18211 5.13357L1.70421 3.6414C1.73842 3.54542 1.75211 3.4407 1.75211 3.33599C1.75211 2.89096 1.47158 2.54191 1.12947 2.54191C0.787368 2.54191 0.5 2.89096 0.5 3.33599C0.5 3.71994 0.712105 4.03408 0.992632 4.11261L1.69737 7.6816C1.69737 7.6816 1.8 8.39714 2.14211 8.43204C2.48421 8.46695 11.7142 8.43204 11.7142 8.43204C11.7142 8.43204 12.2274 8.4844 12.3779 7.53325C12.5011 6.73918 12.8979 4.66236 13.0279 3.99045C13.2947 3.89446 13.5 3.58032 13.5 3.21382Z" fill="#1569CE"/>
</svg>
